<svg xmlns="http://www.w3.org/2000/svg" viewBox="0 0 27.52 27.52"><path d="M21.05 4.92a1.61 1.61 0 1 0 1.61 1.61 1.62 1.62 0 0 0-1.61-1.61M13.87 6.98a6.78 6.78 0 1 0 6.78 6.78 6.78 6.78 0 0 0-6.78-6.78m0 11.12a4.34 4.34 0 1 1 4.35-4.34 4.34 4.34 0 0 1-4.35 4.33Z"/><path d="M19.26 27.52h-11a8.28 8.28 0 0 1-8.27-8.26v-11A8.28 8.28 0 0 1 8.26-.01h11a8.28 8.28 0 0 1 8.26 8.27v11a8.28 8.28 0 0 1-8.26 8.26m-11-24.93a5.69 5.69 0 0 0-5.68 5.68v11a5.68 5.68 0 0 0 5.68 5.67h11a5.67 5.67 0 0 0 5.67-5.67v-11a5.68 5.68 0 0 0-5.67-5.68Z"/></svg>