<svg xmlns="http://www.w3.org/2000/svg" data-name="Layer 1" viewBox="0 0 414.93 108.92"><path d="M36.34 41.12c0 10.14-8.11 17.38-18.75 17.38-6 0-11.73-1.88-13.47-1.88a1.8 1.8 0 0 0-1.73 1.15h-.73L0 39.82h.72C5.21 50 9.19 57.19 17.59 57.19c7.39 0 11.22-3.76 11.22-8.83 0-4.63-2.89-7.67-10.42-10.86l-4.27-1.81c-9.56-4-12-8.9-12-15 0-8.4 6.15-16.37 16.36-16.37 5.94 0 10.21 1.89 12 1.89a1.8 1.8 0 0 0 1.74-1.16h.72l1.66 15.49h-.74c-4.49-9-7.75-14.91-15.35-14.91-4.49 0-8.83 2.89-8.83 7.82 0 3.91.8 6.58 10.64 10.78L24.59 26c9 3.86 11.75 8.57 11.75 15.08m11.73-25.37a6 6 0 1 0-6.08-6 6 6 0 0 0 6.08 6m5.79 37.14v-15.6c0-5.79 0-12 .44-14.91h-.58a60.8 60.8 0 0 1-14.34 6.08v.44c2.76 1.15 4.06 4 4.06 8.39v15.6c0 3.33-1 3.91-4.63 4.2v.72H58.5v-.72c-3.64-.29-4.64-.87-4.64-4.2M82 57.05v.72h18.83v-.72c-3.33-.29-4.35-.87-4.35-4.2v-19a21.4 21.4 0 0 0-.36-3.91 10.7 10.7 0 0 1 4.85-1.3c3.91 0 6.66 2.1 6.66 7.53v16.68c0 3.33-1 3.91-4 4.2v.72h18.82v-.72c-3.33-.29-4.34-.87-4.34-4.2v-19c0-7.53-3.4-11.29-9.2-11.29-5.43 0-9.34 3.18-13 6.51-1.15-4.34-4.2-6.51-8.61-6.51-5.36 0-9 3-12.53 6.37l.58-6.66h-.58a64 64 0 0 1-14 6.08v.44c2.46 1.15 3.76 4.05 3.76 8.39v15.67c0 3.33-1 3.91-4.34 4.2v.72h18.72v-.72c-3-.29-4-.87-4-4.2v-23a10.65 10.65 0 0 1 4.49-1.16c3.91 0 6.66 2.1 6.66 7.53v16.63c0 3.33-1 3.91-4.06 4.2m42.58-16.22c0-11.07 8.47-18.53 19.33-18.53 10.57 0 18.75 7 18.75 17.66 0 11.08-8.47 18.54-19.33 18.54-10.57 0-18.75-7-18.75-17.67M136 37.65c0 6.59 1.59 19.54 8.47 19.54 4 0 6.73-5.06 6.73-14 0-6.59-1.59-19.55-8.47-19.55-4 0-6.73 5-6.73 14m51.54 19.4v.72h18.83v-.72c-3.33-.29-4.35-.87-4.35-4.2v-19c0-7.53-3.69-11.29-9.48-11.29-5.36 0-9 3-12.53 6.37l.58-6.66H180a64 64 0 0 1-14 6.08v.44c2.46 1.15 3.76 4.05 3.76 8.39v15.68c0 3.33-1 3.91-4.34 4.2v.72h18.82v-.72c-3-.29-4.05-.87-4.05-4.2v-23a10.65 10.65 0 0 1 4.49-1.16c3.91 0 7 2.1 7 7.53v16.63c0 3.33-1.06 3.91-4.1 4.2m55.75-4.8a11.71 11.71 0 0 1-10.2 6.08c-5.22 0-6.23-3.33-6.38-6.08-3.76 4.06-7.16 6.08-10.86 6.08-4.34 0-7.45-2.89-7.45-7.09 0-3.33 1.88-5.72 9.7-8l8.54-2.53v-5.65c0-2-.65-6.37-5.43-6.37-1.66 0-6 .65-6 2.24 0 1.16 2 3.33 2 5.65s-1.74 3.33-3.84 3.33c-1.81 0-3.62-.94-3.62-3.26 0-2.6 2.24-5.43 5.43-8.25 4.63-4.13 8.54-5.79 12.31-5.79 5.43 0 9.63 3.55 9.63 9.56v18.67c0 1.74.87 2.83 2.31 2.83a4.4 4.4 0 0 0 3.26-1.81Zm-16.65-10.4-4.42 1.59c-1.88.72-3.47 2-3.47 4.63 0 2.9 1.74 4.49 4.27 4.49a5.7 5.7 0 0 0 3.62-1.66v-9Zm86.23 10c-2.17.72-2.75.21-2.75-1.52V39.38c0-3.33 1-4.34 5.5-4.63V34H291v.72c6.22.29 7.24 1.45 7.24 4.78v10.89c0 3.84-3.62 6.66-8.84 6.66-9.21 0-17.4-10.57-17.4-29.25 0-13.61 6.37-22 15.78-22 7.39 0 15.64 5.79 21.58 17.23h.72l-2-18h-.72a3.22 3.22 0 0 1-2.83 1.74c-2.31 0-7.16-2.47-16.72-2.47-17.37 0-29.39 12.82-29.39 28.38 0 18.1 12.45 25.78 28.31 25.78 7.89 0 20.63-2.61 26.42-6.08Zm19 1v-15.6c0-5.79 0-12 .44-14.91h-.58a60.8 60.8 0 0 1-14.34 6.08v.44c2.76 1.15 4.06 4 4.06 8.39v15.6c0 3.33-1 3.91-4.63 4.2v.72h19.69v-.72c-3.62-.29-4.62-.87-4.62-4.2Zm-5.79-37.14a6 6 0 1 0-6.08-6 6 6 0 0 0 6.08 6M376.88 40c0 11.08-8.47 18.54-19.33 18.54-10.57 0-18.76-7-18.76-17.67 0-11.07 8.48-18.53 19.34-18.53 10.61 0 18.79 7 18.79 17.66Zm-11.44 3.19c0-6.59-1.59-19.55-8.47-19.55-4.06 0-6.73 5.07-6.73 14 0 6.59 1.59 19.54 8.47 19.54 4.09 0 6.77-5 6.77-14Zm24-34.75c2.32 1.88 7.89 5.36 11.37 8.25l.51-.43c-1.45-3.77-3.84-11.73-4.42-13.11a4.74 4.74 0 1 0-7.46 5.29M414.93 46c-3.48 8-10.72 12.53-17.52 12.53-9.27 0-17.09-6.37-17.09-16.94 0-10.86 7.46-19.26 18-19.26 8.83 0 14.77 4.85 14.91 13.1H391c.22 9.92 5.65 16.15 12.6 16.15 3.91 0 7.67-1.74 10.86-5.94ZM391 34.25h8.18c2.61 0 3-.65 3-3 0-4.2-1.3-7.68-4.63-7.68-2.57 0-6.33 2.68-6.55 10.68M95 108.5h3.9V98h11v-3h-11v-8h12v-3.1H95Zm42.8-18.88a13.91 13.91 0 0 1 0 13.17 11.76 11.76 0 0 1-4.57 4.5 14.12 14.12 0 0 1-13.16 0 11.6 11.6 0 0 1-4.55-4.5 14 14 0 0 1 0-13.17 11.7 11.7 0 0 1 4.55-4.5 14.17 14.17 0 0 1 13.16 0 11.8 11.8 0 0 1 4.57 4.49Zm-2.46 6.58a10.8 10.8 0 0 0-1.12-5 8.42 8.42 0 0 0-15.16 0 11.62 11.62 0 0 0 0 9.88 8.4 8.4 0 0 0 3.07 3.43 8.71 8.71 0 0 0 9 0 8.4 8.4 0 0 0 3.09-3.44 10.7 10.7 0 0 0 1.12-5Zm5.71-9.2h7.53v21.5h3.85V87H160v-3.1h-18.95Zm44.49 2.64a13.91 13.91 0 0 1 0 13.17 11.76 11.76 0 0 1-4.57 4.5 14.13 14.13 0 0 1-13.11 0 11.6 11.6 0 0 1-4.55-4.5 14 14 0 0 1 0-13.17 11.7 11.7 0 0 1 4.55-4.5 14.17 14.17 0 0 1 13.16 0 11.85 11.85 0 0 1 4.52 4.53Zm-2.46 6.58a10.8 10.8 0 0 0-1.12-5 8.36 8.36 0 0 0-15.1 0 11.62 11.62 0 0 0 0 9.88 8.4 8.4 0 0 0 3.07 3.43 8.71 8.71 0 0 0 9 0 8.4 8.4 0 0 0 3.09-3.44 10.74 10.74 0 0 0 1.06-4.93Zm21.72 2.1h6.79v1.79a4.64 4.64 0 0 1-1 3 6.9 6.9 0 0 1-2.76 2 9.2 9.2 0 0 1-3.66.72 8.23 8.23 0 0 1-4.6-1.3 8.6 8.6 0 0 1-3.14-3.56 11.2 11.2 0 0 1-1.11-5 10.7 10.7 0 0 1 1.09-4.9 8.5 8.5 0 0 1 3-3.38 8.88 8.88 0 0 1 8.84-.06 8.8 8.8 0 0 1 3.08 3.24l3.24-1.35a11.57 11.57 0 0 0-4.41-4.45 12.83 12.83 0 0 0-6.44-1.6 12.66 12.66 0 0 0-6.37 1.62 11.53 11.53 0 0 0-4.42 4.53 13.33 13.33 0 0 0-1.61 6.56 13.8 13.8 0 0 0 1.51 6.52 11.2 11.2 0 0 0 4.2 4.54 11.6 11.6 0 0 0 6.15 1.64 11.9 11.9 0 0 0 5.46-1.23 9 9 0 0 0 3.16-2.63v3.45h3.28V95.35H204.8Zm29.43-.51 5.41 10.71h-4.16l-4.91-10.1h-5.9v10.1h-3.81V83.9h9.53a12.2 12.2 0 0 1 4.85.88 6.9 6.9 0 0 1 3 2.5 7.13 7.13 0 0 1 1.05 3.92 6.36 6.36 0 0 1-1.13 3.8 7.33 7.33 0 0 1-3.2 2.52l-.73.24Zm-9.56-2.29h5.51a5.9 5.9 0 0 0 3.82-1.17 3.82 3.82 0 0 0 1.42-3.15 3.77 3.77 0 0 0-1.39-3.15 6.38 6.38 0 0 0-4-1.1h-5.37Zm31.05-11.59L265 108.5h-4.05l-2.1-5.91h-11l-2.08 5.91h-3.62l9.23-24.59Zm2.07 15.74-4.45-12.58-4.43 12.58Zm11.41 8.85h3.85V98h11v-3h-11v-8h12v-3.1H269.2Zm20.54 0h3.86V83.9h-3.86Zm21.63-24.59 9.26 24.59h-4.06l-2.09-5.91h-11l-2.09 5.91h-3.53l9.22-24.59Zm2.07 15.74L309 87.07l-4.44 12.58Z" style="fill:#f5f4f0"/></svg>