<svg xmlns="http://www.w3.org/2000/svg" id="Layer_1" data-name="Layer 1" viewBox="0 0 128 26.81"><defs><style>.cls-1{fill:#262626}</style></defs><path d="M6.89 7.76a4.4 4.4 0 0 0-.41-1.6 3.1 3.1 0 0 0-1-1.24 2.9 2.9 0 0 0-1.72-.48 2.2 2.2 0 0 0-1.68.62 2 2 0 0 0-.58 1.45 1.9 1.9 0 0 0 .42 1.25 4.2 4.2 0 0 0 1.11.88c.45.25.93.5 1.44.73s.89.42 1.34.65a7 7 0 0 1 1.22.78 3.4 3.4 0 0 1 .88 1.06 3 3 0 0 1 .32 1.45 3.2 3.2 0 0 1-.48 1.74 3.33 3.33 0 0 1-1.41 1.19 5.2 5.2 0 0 1-2.24.43 6 6 0 0 1-1.65-.23 4.9 4.9 0 0 1-1.5-.67l.09.76H.13l-.1-3.76h.68a3.13 3.13 0 0 0 1.08 2.36 3.7 3.7 0 0 0 2.34.82 3.1 3.1 0 0 0 1.27-.26 2.16 2.16 0 0 0 .93-.75 2.29 2.29 0 0 0-.08-2.52 3.7 3.7 0 0 0-1.1-.92c-.44-.26-.92-.51-1.43-.75s-.89-.41-1.32-.63a7.3 7.3 0 0 1-1.2-.77 3.3 3.3 0 0 1-.86-1 3 3 0 0 1-.31-1.5 3.3 3.3 0 0 1 .16-1 2.9 2.9 0 0 1 .56-1 3 3 0 0 1 1.09-.8 4.55 4.55 0 0 1 1.78-.31 7.3 7.3 0 0 1 1.51.21 4 4 0 0 1 1.56.72l-.07-.76h.9v3.88ZM15 4.6a1.22 1.22 0 0 0-.87.35 1.2 1.2 0 0 0-.28.76v9.45a4 4 0 0 1 0 .57h1.27v.78h-4v-.58a1.34 1.34 0 0 0 .92-.31 1.2 1.2 0 0 0 .28-.76V4.72h-1.28v-.78h4ZM24.67 16.57c-.52-1.18-1-2.36-1.57-3.53s-1-2.36-1.56-3.56l-.49-1.14c-.15-.38-.31-.77-.45-1.16s-.3-.78-.46-1.17v.78c0 .43 0 .94-.05 1.53s0 1.23-.06 1.91 0 1.36-.05 2 0 1.32 0 1.92v.78c0 .26 0 .5-.05.72h1.33v.78h-3.45v-.58a1.28 1.28 0 0 0 .81-.24 1 1 0 0 0 .32-.59 5 5 0 0 0 .09-.8l.34-8.06v-1.4H18.1V4h2.7l3 7 .45 1.06c.15.36.3.71.46 1.07s.32.71.47 1.07c.13-.31.28-.69.46-1.14l.57-1.11c.52-1.29 1.05-2.59 1.61-3.89s1.11-2.65 1.66-4h2.65v.58a1.17 1.17 0 0 0-.72.17 1 1 0 0 0-.41.61 3.8 3.8 0 0 0-.09 1.15l.46 8a4 4 0 0 1 0 .58v.52h1.29v.78h-4v-.58a1.17 1.17 0 0 0 .81-.27 1.1 1.1 0 0 0 .33-.71 6.6 6.6 0 0 0 0-1.13l-.36-5.83v-1.7l-.12.27a2 2 0 0 0-.11.3l-4 9.83ZM41.34 16.67a6.8 6.8 0 0 1-2.88-.56 5.34 5.34 0 0 1-2-1.51 6.2 6.2 0 0 1-1.1-2.1 7.6 7.6 0 0 1-.36-2.3 7.2 7.2 0 0 1 .42-2.25 6.2 6.2 0 0 1 1.14-2.09 5.7 5.7 0 0 1 1.92-1.54 6 6 0 0 1 2.72-.59 6.3 6.3 0 0 1 2.81.59 5.7 5.7 0 0 1 1.95 1.54 7 7 0 0 1 1.53 4.34 7.5 7.5 0 0 1-.36 2.24 6.7 6.7 0 0 1-1.14 2.1 5.65 5.65 0 0 1-4.64 2.13Zm0-.72a3.8 3.8 0 0 0 1.91-.47 4.06 4.06 0 0 0 1.35-1.26 6 6 0 0 0 .82-1.75 7 7 0 0 0 .27-1.93 8 8 0 0 0-.3-2.17 7.2 7.2 0 0 0-.88-2 4.75 4.75 0 0 0-1.38-1.42 3.63 3.63 0 0 0-2-.54 3.75 3.75 0 0 0-1.92.48 4.3 4.3 0 0 0-1.36 1.26 6 6 0 0 0-.8 1.8 7.2 7.2 0 0 0-.27 2 8.3 8.3 0 0 0 .27 2 7 7 0 0 0 .84 2 4.6 4.6 0 0 0 1.43 1.48 3.65 3.65 0 0 0 2.05.52ZM59.81 16.67 52.75 7.2l-.3-.42-.32-.41v9.33h1.27v.78h-3.27v-.58a1.08 1.08 0 0 0 .79-.24 1.14 1.14 0 0 0 .31-.57 2.6 2.6 0 0 0 .07-.59V4.72h-1.19v-.78h2.11l6.63 8.87.45.6q.21.3.45.6V4.72h-1.28v-.78h3.26v.58a1.22 1.22 0 0 0-.91.3 1.2 1.2 0 0 0-.26.76v11.01ZM63.59 16.39v-.58a1.1 1.1 0 0 0 .81-.29 2 2 0 0 0 .47-.77c.13-.33.27-.72.43-1.15l3.64-9.92h.43l3.94 10.06c.09.25.2.56.32.95a2.7 2.7 0 0 1 .14 1h1.2v.78h-4v-.58a1.13 1.13 0 0 0 .88-.3.93.93 0 0 0 .16-.68 3.6 3.6 0 0 0-.18-.7l-.7-1.74-4.59.1-.62 1.89c-.08.29-.16.51-.22.67l-.22.55h1.38v.78Zm3.25-4.58h4.09l-1.26-3.37c-.13-.37-.26-.73-.4-1.09s-.27-.72-.4-1.09l-.36 1c-.13.33-.25.67-.38 1ZM88.37 16.67a6.4 6.4 0 0 1-3.13-.72 5.2 5.2 0 0 1-2.11-2.16 6.8 6.8 0 0 1-.76-3.32 8.1 8.1 0 0 1 .38-2.45 6.7 6.7 0 0 1 1.15-2.16 5.5 5.5 0 0 1 1.92-1.55 6.06 6.06 0 0 1 2.7-.58 7 7 0 0 1 1.29.12 7.3 7.3 0 0 1 1.26.34 5.7 5.7 0 0 1 1.11.52l-.05-.85h1v4.09h-.7a3.65 3.65 0 0 0-.59-1.89 3.46 3.46 0 0 0-1.35-1.17 4.2 4.2 0 0 0-1.86-.41 3.8 3.8 0 0 0-1.75.42 4.35 4.35 0 0 0-1.45 1.16 5.7 5.7 0 0 0-1 1.78 7 7 0 0 0-.3 2.22 7 7 0 0 0 .6 3 4.94 4.94 0 0 0 1.67 2.05 4.2 4.2 0 0 0 2.47.74 6 6 0 0 0 1-.08 5.3 5.3 0 0 0 1-.3 5 5 0 0 0 1-.5v-3.9h-1.24v-.78h4v.66a1 1 0 0 0-.76.25 1.36 1.36 0 0 0-.37.62 3 3 0 0 0-.13.71v3.22h-.48a4 4 0 0 0-.78.11 8 8 0 0 0-1.13.35 6.7 6.7 0 0 1-1.27.34 8 8 0 0 1-1.34.12M100.99 4.6a1.22 1.22 0 0 0-.91.3 1.15 1.15 0 0 0-.28.76v9.45a4 4 0 0 1 0 .57h1.27v.78h-4v-.58a1.34 1.34 0 0 0 .92-.31 1.2 1.2 0 0 0 .28-.76V4.72h-1.28v-.78h4ZM109.97 16.67a6.8 6.8 0 0 1-2.88-.56 5.4 5.4 0 0 1-2-1.51 6.4 6.4 0 0 1-1.1-2.1 7.6 7.6 0 0 1-.35-2.3 7.2 7.2 0 0 1 .37-2.25 6.2 6.2 0 0 1 1.14-2.09 5.7 5.7 0 0 1 1.98-1.54 6 6 0 0 1 2.72-.59 6.3 6.3 0 0 1 2.81.59 5.6 5.6 0 0 1 1.95 1.54 6.9 6.9 0 0 1 1.15 2.1 7 7 0 0 1 .38 2.24 7.2 7.2 0 0 1-.37 2.24 6.7 6.7 0 0 1-1.14 2.1 5.7 5.7 0 0 1-1.92 1.55 5.9 5.9 0 0 1-2.74.58m0-.72a3.8 3.8 0 0 0 1.91-.47 4.06 4.06 0 0 0 1.35-1.26 5.8 5.8 0 0 0 .82-1.75 7 7 0 0 0 .27-1.93 8 8 0 0 0-.3-2.17 6.9 6.9 0 0 0-.88-2 4.75 4.75 0 0 0-1.41-1.42 3.63 3.63 0 0 0-2-.54 3.7 3.7 0 0 0-1.91.48 4.24 4.24 0 0 0-1.37 1.26 6.2 6.2 0 0 0-.81 1.75 7.2 7.2 0 0 0-.27 2 8.3 8.3 0 0 0 .27 2 7 7 0 0 0 .84 2 4.7 4.7 0 0 0 1.43 1.48 3.65 3.65 0 0 0 2.09.57ZM124.92 11.81a2.17 2.17 0 0 0-.21-1.11.91.91 0 0 0-.67-.41 5.8 5.8 0 0 0-1.22 0l-1.29.05v5.43l3.37-.06a3.6 3.6 0 0 0 1.34-.25 1.77 1.77 0 0 0 .89-.84 3.6 3.6 0 0 0 .32-1.65h.6l-.11 3.45h-9.12v-.58a1.36 1.36 0 0 0 .92-.31 1.2 1.2 0 0 0 .27-.76V4.72h-1.27v-.78h8.5l.09 3.09h-.58a3.2 3.2 0 0 0-.32-1.58 1.6 1.6 0 0 0-.86-.73 3.3 3.3 0 0 0-1.21-.16h-1.52a1.6 1.6 0 0 0-.94.25 1 1 0 0 0-.34.68 9 9 0 0 0-.06 1.17v2.83h3.32l-.12-1.52h.77v3.71Zm-.71-8.86-2.56-1.58a1.23 1.23 0 0 1-.52-.42.67.67 0 0 1-.07-.42.8.8 0 0 1 .1-.25 1 1 0 0 1 .19-.16.62.62 0 0 1 .4-.07 1.08 1.08 0 0 1 .6.31l2.22 2.12ZM23.53 26.77v-5.82h2.07a3 3 0 0 1 1.25.23 1.75 1.75 0 0 1 .8.66 1.9 1.9 0 0 1 .28 1.11 1.86 1.86 0 0 1-.28 1 1.83 1.83 0 0 1-.8.67 3.1 3.1 0 0 1-1.25.23h-1.84l.19-.2v2.09Zm.42-2.06-.19-.21h1.84a2.17 2.17 0 0 0 1.42-.41 1.63 1.63 0 0 0 0-2.31 2.1 2.1 0 0 0-1.42-.41h-1.84l.19-.21ZM31.43 26.77H31v-5.82h.43Zm3.91-2.75h-4v-.37h4Zm-.05-3h.42v5.78h-.42ZM41.84 26.81a3.2 3.2 0 0 1-1.2-.22 2.7 2.7 0 0 1-.95-.62 2.6 2.6 0 0 1-.64-.93 3.17 3.17 0 0 1 0-2.32 2.6 2.6 0 0 1 .64-.93 2.7 2.7 0 0 1 .95-.62 3.2 3.2 0 0 1 1.2-.22 3.1 3.1 0 0 1 1.19.22 2.8 2.8 0 0 1 1 .61 2.9 2.9 0 0 1 .63.93 3.1 3.1 0 0 1 0 2.34 2.9 2.9 0 0 1-.63.93 2.8 2.8 0 0 1-1 .61 3.1 3.1 0 0 1-1.19.22m0-.38a2.6 2.6 0 0 0 1-.2 2.3 2.3 0 0 0 .82-.53 2.5 2.5 0 0 0 .54-.81 2.6 2.6 0 0 0 .2-1 2.5 2.5 0 0 0-.2-1 2.5 2.5 0 0 0-.54-.81 2.4 2.4 0 0 0-.82-.54 2.8 2.8 0 0 0-1-.18 2.9 2.9 0 0 0-1 .18 2.7 2.7 0 0 0-.82.54 2.35 2.35 0 0 0-.54.81 2.5 2.5 0 0 0-.2 1 2.6 2.6 0 0 0 .2 1 2.35 2.35 0 0 0 .54.81 2.5 2.5 0 0 0 .82.53 2.7 2.7 0 0 0 1 .2M48.98 26.77v-5.4H46.9v-.42h4.59v.38h-2.08v5.4ZM56.55 26.81a3.1 3.1 0 0 1-1.19-.22 2.7 2.7 0 0 1-1-.62 2.7 2.7 0 0 1-.63-.93 3.17 3.17 0 0 1 0-2.32 2.7 2.7 0 0 1 .63-.93 2.7 2.7 0 0 1 1-.62 3.1 3.1 0 0 1 1.19-.22 3.2 3.2 0 0 1 1.2.22 2.9 2.9 0 0 1 .95.61 2.9 2.9 0 0 1 .63.93 3.1 3.1 0 0 1 0 2.34 2.9 2.9 0 0 1-.63.93 2.9 2.9 0 0 1-.95.61 3.2 3.2 0 0 1-1.2.22m0-.38a2.7 2.7 0 0 0 1-.2 2.5 2.5 0 0 0 .82-.53 2.5 2.5 0 0 0 .54-.81 2.6 2.6 0 0 0 .19-1 2.5 2.5 0 0 0-.19-1 2.5 2.5 0 0 0-.54-.81 2.7 2.7 0 0 0-.82-.54 2.9 2.9 0 0 0-1-.18 2.8 2.8 0 0 0-1 .18 2.4 2.4 0 0 0-.82.54 2.4 2.4 0 0 0-.55.81 2.5 2.5 0 0 0-.19 1 2.6 2.6 0 0 0 .19 1 2.4 2.4 0 0 0 .55.81 2.3 2.3 0 0 0 .82.53 2.6 2.6 0 0 0 1 .2M65.13 26.81a3.2 3.2 0 0 1-1.21-.22 2.78 2.78 0 0 1-1.59-1.54 3.1 3.1 0 0 1 0-2.34 2.8 2.8 0 0 1 .63-.93 3 3 0 0 1 1-.61 3.2 3.2 0 0 1 1.17-.22 3.4 3.4 0 0 1 1.17.19 2.6 2.6 0 0 1 .92.6l-.27.28a2.3 2.3 0 0 0-.83-.53 3 3 0 0 0-1-.15 3 3 0 0 0-1 .18 2.5 2.5 0 0 0-.83.54 2.4 2.4 0 0 0-.55.81 2.65 2.65 0 0 0 0 2 2.4 2.4 0 0 0 .55.81 2.3 2.3 0 0 0 .83.53 2.8 2.8 0 0 0 1 .2 3.1 3.1 0 0 0 1-.16 2.3 2.3 0 0 0 .84-.52l.24.32a2.6 2.6 0 0 1-.93.56 3.6 3.6 0 0 1-1.14.2m1.66-.78v-2.08h.4v2.17ZM70.72 26.77v-5.82h2.07a3 3 0 0 1 1.25.23 1.8 1.8 0 0 1 .8.66 1.9 1.9 0 0 1 .29 1.11 1.76 1.76 0 0 1-1.08 1.7 3 3 0 0 1-1.25.24h-1.85l.19-.2v2.09Zm.41-2.06-.19-.2h1.84a2.13 2.13 0 0 0 1.42-.42 1.63 1.63 0 0 0 0-2.31 2.13 2.13 0 0 0-1.42-.41h-1.83l.19-.21Zm3.59 2.06-1.5-2.1h.48l1.5 2.1ZM77.35 26.77l2.66-5.82h.42l2.7 5.82h-.45l-2.55-5.52h.18l-2.5 5.52Zm1-1.63.14-.35h3.44l.14.35ZM85.79 26.77v-5.82h2.08a3 3 0 0 1 1.25.23 1.8 1.8 0 0 1 .8.66 1.9 1.9 0 0 1 .28 1.11 1.86 1.86 0 0 1-.28 1 1.9 1.9 0 0 1-.8.67 3.2 3.2 0 0 1-1.25.23h-1.84l.19-.2v2.09Zm.43-2.06-.19-.21h1.84a2.18 2.18 0 0 0 1.42-.41 1.63 1.63 0 0 0 0-2.31 2.13 2.13 0 0 0-1.42-.41h-1.84l.19-.21ZM93.69 26.77h-.42v-5.82h.42Zm3.92-2.75h-4v-.37h4Zm0-3h.42v5.78h-.42ZM103.01 26.77v-2.1l.1.28-2.43-4h.45l2.2 3.59h-.2l2.2-3.59h.44l-2.43 4 .1-.28v2.1Z" class="cls-1"/></svg>