<svg xmlns="http://www.w3.org/2000/svg" data-name="Layer 1" viewBox="0 0 415 328.02"><path d="M126.48 393.87c0 10.14-8.11 17.38-18.75 17.38-6 0-11.73-1.88-13.47-1.88a1.78 1.78 0 0 0-1.73 1.15h-.73l-1.66-17.95h.72c4.49 10.13 8.47 17.37 16.87 17.37 7.39 0 11.22-3.76 11.22-8.83 0-4.63-2.89-7.67-10.42-10.86l-4.27-1.81c-9.56-4.05-12-8.9-12-15 0-8.4 6.15-16.37 16.36-16.37 5.94 0 10.21 1.89 12 1.89a1.81 1.81 0 0 0 1.74-1.16h.72l1.66 15.49H124c-4.49-9-7.75-14.91-15.35-14.91-4.49 0-8.83 2.89-8.83 7.82 0 3.91.8 6.58 10.64 10.78l4.27 1.81c9 3.86 11.75 8.57 11.75 15.08m11.73-25.41a6 6 0 1 0-6.08-6 6.06 6.06 0 0 0 6.08 6M144 405.6V390c0-5.79 0-12 .44-14.91h-.58c-4.34 2.46-10 5.07-14.34 6.08v.44c2.76 1.15 4.06 4.05 4.06 8.39v15.6c0 3.33-1 3.91-4.63 4.2v.72h19.69v-.72c-3.64-.29-4.64-.87-4.64-4.2m28.09 4.2v.72h18.83v-.72c-3.33-.29-4.35-.87-4.35-4.2v-19a21 21 0 0 0-.36-3.91 10.6 10.6 0 0 1 4.85-1.3c3.91 0 6.66 2.1 6.66 7.53v16.68c0 3.33-1 3.91-4.05 4.2v.72h18.82v-.72c-3.33-.29-4.34-.87-4.34-4.2v-19c0-7.53-3.4-11.29-9.2-11.29-5.43 0-9.34 3.18-13 6.51-1.15-4.34-4.2-6.51-8.61-6.51-5.36 0-9 3-12.53 6.37l.58-6.66h-.58a64.3 64.3 0 0 1-14 6.08v.44c2.46 1.15 3.76 4.05 3.76 8.39v15.67c0 3.33-1 3.91-4.34 4.2v.72h18.82v-.72c-3-.29-4.05-.87-4.05-4.2v-23a10.5 10.5 0 0 1 4.49-1.16c3.91 0 6.66 2.1 6.66 7.53v16.63c0 3.33-1.02 3.91-4.06 4.2m42.58-16.22c0-11.07 8.47-18.53 19.33-18.53 10.57 0 18.75 7 18.75 17.66 0 11.08-8.47 18.54-19.33 18.54-10.57 0-18.75-7.03-18.75-17.67m11.44-3.18c0 6.59 1.59 19.54 8.47 19.54 4 0 6.73-5.06 6.73-14 0-6.59-1.59-19.55-8.47-19.55-4.05-.04-6.73 5.03-6.73 14.01m51.54 19.4v.72h18.83v-.72c-3.33-.29-4.35-.87-4.35-4.2v-19c0-7.53-3.69-11.29-9.48-11.29-5.36 0-9 3-12.53 6.37l.58-6.66h-.58a64.3 64.3 0 0 1-14 6.08v.44c2.46 1.15 3.76 4.05 3.76 8.39v15.67c0 3.33-1 3.91-4.34 4.2v.72h18.82v-.72c-3-.29-4.05-.87-4.05-4.2v-23a10.5 10.5 0 0 1 4.49-1.16c3.91 0 6.95 2.1 6.95 7.53v16.63c-.04 3.33-1.06 3.91-4.1 4.2m55.75-4.8a11.72 11.72 0 0 1-10.2 6.08c-5.22 0-6.23-3.33-6.38-6.08-3.76 4.06-7.16 6.08-10.86 6.08-4.34 0-7.45-2.89-7.45-7.09 0-3.33 1.88-5.72 9.7-8l8.54-2.53v-5.65c0-2-.65-6.37-5.43-6.37-1.66 0-6 .65-6 2.24 0 1.16 2 3.33 2 5.65s-1.74 3.33-3.84 3.33c-1.81 0-3.62-.94-3.62-3.26 0-2.6 2.24-5.43 5.43-8.25 4.63-4.13 8.54-5.79 12.31-5.79 5.43 0 9.63 3.55 9.63 9.56v18.67c0 1.74.87 2.83 2.31 2.83a4.42 4.42 0 0 0 3.26-1.81Zm-16.65-10.4-4.42 1.59c-1.88.72-3.47 1.95-3.47 4.63 0 2.9 1.74 4.49 4.27 4.49a5.76 5.76 0 0 0 3.62-1.66v-9Zm86.23 10c-2.17.72-2.75.21-2.75-1.52v-10.95c0-3.33 1-4.34 5.5-4.63v-.72h-24.61v.72c6.22.29 7.24 1.45 7.24 4.78v10.86c0 3.84-3.62 6.66-8.84 6.66-9.19 0-17.37-10.57-17.37-29.25 0-13.61 6.37-22 15.78-22 7.39 0 15.64 5.79 21.58 17.23h.72l-2-17.95h-.72a3.25 3.25 0 0 1-2.83 1.74c-2.31 0-7.16-2.47-16.72-2.47-17.37 0-29.39 12.82-29.39 28.38 0 18.1 12.45 25.78 28.31 25.78 7.89 0 20.63-2.61 26.42-6.08Zm19 1V390c0-5.79 0-12 .44-14.91h-.58c-4.34 2.46-10 5.07-14.34 6.08v.44c2.76 1.15 4.06 4.05 4.06 8.39v15.6c0 3.33-1 3.91-4.63 4.2v.72h19.69v-.72c-3.62-.29-4.62-.87-4.62-4.2Zm-5.79-37.14a6 6 0 1 0-6.08-6 6.06 6.06 0 0 0 6.12 6Zm50.83 24.25c0 11.08-8.47 18.54-19.33 18.54-10.57 0-18.76-7-18.76-17.67 0-11.07 8.48-18.53 19.34-18.53 10.61 0 18.79 7.02 18.79 17.66Zm-11.44 3.19c0-6.59-1.59-19.55-8.47-19.55-4.06 0-6.73 5.07-6.73 14 0 6.59 1.59 19.54 8.47 19.54 4.09.05 6.77-5.01 6.77-13.99Zm24-34.75c2.32 1.88 7.89 5.36 11.37 8.25l.51-.43c-1.45-3.77-3.84-11.73-4.42-13.11a4.74 4.74 0 1 0-7.46 5.29m25.49 37.57c-3.48 8-10.72 12.53-17.52 12.53-9.27 0-17.09-6.37-17.09-16.94 0-10.86 7.46-19.26 18-19.26 8.83 0 14.77 4.85 14.91 13.1H481.1c.22 9.92 5.65 16.15 12.6 16.15 3.91 0 7.67-1.74 10.86-5.94ZM481.1 387h8.18c2.61 0 3-.65 3-3 0-4.2-1.3-7.68-4.63-7.68-2.57.03-6.33 2.68-6.55 10.68m-296 74.25h3.9v-10.5h11v-3h-11v-8h12v-3.1h-15.9Zm42.84-18.88a13.89 13.89 0 0 1 0 13.17 11.83 11.83 0 0 1-4.57 4.5 14.17 14.17 0 0 1-13.16 0 11.7 11.7 0 0 1-4.55-4.5 14 14 0 0 1 0-13.17 11.65 11.65 0 0 1 4.55-4.5 14.17 14.17 0 0 1 13.16 0 11.77 11.77 0 0 1 4.57 4.49Zm-2.46 6.58a10.7 10.7 0 0 0-1.12-4.95 8.6 8.6 0 0 0-3.09-3.43 8.71 8.71 0 0 0-9 0 8.57 8.57 0 0 0-3.07 3.45 11.64 11.64 0 0 0 0 9.88 8.45 8.45 0 0 0 3.07 3.43 8.71 8.71 0 0 0 9 0 8.5 8.5 0 0 0 3.09-3.44 10.7 10.7 0 0 0 1.12-4.95Zm5.71-9.22h7.53v21.52h3.85v-21.53h7.54v-3.07h-18.92Zm44.49 2.64a13.89 13.89 0 0 1 0 13.17 11.83 11.83 0 0 1-4.57 4.5A14.17 14.17 0 0 1 258 460a11.7 11.7 0 0 1-4.55-4.5 14 14 0 0 1 0-13.17 11.65 11.65 0 0 1 4.55-4.5 14.17 14.17 0 0 1 13.16 0 11.77 11.77 0 0 1 4.52 4.53Zm-2.46 6.58a10.7 10.7 0 0 0-1.12-4.95 8.6 8.6 0 0 0-3.09-3.43 8.71 8.71 0 0 0-9 0A8.57 8.57 0 0 0 257 444a11.64 11.64 0 0 0 0 9.88 8.45 8.45 0 0 0 3.07 3.43 8.71 8.71 0 0 0 9 0 8.5 8.5 0 0 0 3.09-3.44 10.7 10.7 0 0 0 1.06-4.93Zm21.72 2.1h6.79v1.79a4.64 4.64 0 0 1-1 3 7 7 0 0 1-2.76 2.05 9.3 9.3 0 0 1-3.66.72 8.3 8.3 0 0 1-4.6-1.3 8.63 8.63 0 0 1-3.14-3.56 11.15 11.15 0 0 1-1.11-5 10.7 10.7 0 0 1 1.09-4.9 8.4 8.4 0 0 1 3-3.38 8.87 8.87 0 0 1 8.84-.06 8.66 8.66 0 0 1 3.08 3.24l3.24-1.35a11.5 11.5 0 0 0-4.41-4.45 12.8 12.8 0 0 0-6.44-1.6 12.57 12.57 0 0 0-6.37 1.62 11.53 11.53 0 0 0-4.42 4.53 13.34 13.34 0 0 0-1.61 6.56 13.9 13.9 0 0 0 1.51 6.52 11.23 11.23 0 0 0 4.2 4.54 11.64 11.64 0 0 0 6.15 1.64 12 12 0 0 0 5.46-1.23 9 9 0 0 0 3.16-2.63v3.45h3.28V448.1h-10.28Zm29.43-.51 5.41 10.71h-4.16l-4.91-10.1h-5.9v10.1H311v-24.6h9.53a12.2 12.2 0 0 1 4.85.88 6.8 6.8 0 0 1 3.05 2.5 7.1 7.1 0 0 1 1.05 3.92 6.37 6.37 0 0 1-1.18 3.82 7.46 7.46 0 0 1-3.2 2.52c-.26.09-.5.16-.73.24Zm-9.56-2.29h5.51a6 6 0 0 0 3.85-1.15 3.83 3.83 0 0 0 1.42-3.15 3.76 3.76 0 0 0-1.39-3.15 6.3 6.3 0 0 0-4-1.1h-5.37Zm31.05-11.59 9.26 24.59h-4.05l-2.1-5.91H338l-2.08 5.91h-3.62l9.23-24.59Zm2.07 15.74-4.45-12.58-4.43 12.58Zm11.41 8.85h3.85v-10.5h11v-3h-11v-8h12v-3.1h-15.85Zm20.54 0h3.86v-24.6h-3.86Zm21.63-24.59 9.26 24.59h-4.06l-2.09-5.91h-11l-2.09 5.91H388l9.22-24.59Zm2.07 15.74-4.45-12.58-4.44 12.58Zm-173-162.49a2.41 2.41 0 0 0 2.4-2.4v-84.74a64.34 64.34 0 0 1 128.68 0v84.73a2.4 2.4 0 1 0 4.8 0v-84.73a69.14 69.14 0 0 0-138.28 0v84.73a2.4 2.4 0 0 0 2.41 2.4Zm135 51.4a.92.92 0 0 0 .65-1.58l-3.23-3.15a16.58 16.58 0 0 0-11.39-4.89l-12-.16 26-11.53a.93.93 0 0 0-.06-1.72l-5.91-2.17a16.45 16.45 0 0 0-10.94.29l-26.63 8.84 19.1-18.24a.92.92 0 0 0-.55-1.59l-4.51-.44a18.2 18.2 0 0 0-12.34 4.03l-24.31 18.66-23.89-12.13 13.88-2a15.6 15.6 0 0 0 10.61-5.23l2.13-2.43a.93.93 0 0 0-.69-1.54h-37.51a.8.8 0 0 0-.41.1L228.19 322v19.34Zm-67.49-137.69a.93.93 0 0 0-.93-.76 1 1 0 0 0-.93.76 42.79 42.79 0 0 1-32.92 32.92.95.95 0 0 0 0 1.86 42.79 42.79 0 0 1 32.92 32.92 1 1 0 0 0 .93.76.94.94 0 0 0 .93-.76A42.81 42.81 0 0 1 331 238.4a.95.95 0 0 0 0-1.86 42.81 42.81 0 0 1-32.91-32.92" style="fill:#1d1d1b" transform="translate(-90.14 -133.63)"/></svg>