<svg xmlns="http://www.w3.org/2000/svg" id="Layer_1" data-name="Layer 1" viewBox="0 0 703.63 405.55"><defs><style>.cls-1{fill:#3b3733}</style></defs><path d="M311.98 131.4a40.29 40.29 0 1 0 40.29-40.29 40.33 40.33 0 0 0-40.29 40.29m67.9 0a27.61 27.61 0 1 1-27.61-27.61 27.65 27.65 0 0 1 27.61 27.61M258.38 214.99h64.43a89 89 0 0 1-20.38-12.68h-44.05a33.58 33.58 0 0 1-33.57-33.54v-2.86h-12.65v2.82a46.28 46.28 0 0 0 46.22 46.26" class="cls-1"/><path d="M238.43 129.29c4.55 1.79 9.33 3.31 13.95 4.78 16.63 5.28 26.85 9.15 28.48 18.32v.16c7.41 36.18 40.43 62.44 78.51 62.44 44.13 0 80-34.84 80-77.66v-2.11h39.44v33.55a33.58 33.58 0 0 1-33.54 33.54h-28.91a88.2 88.2 0 0 1-20.35 12.68h49.23a46.28 46.28 0 0 0 46.22-46.22v-46.23h-80v12.68h15.35v2.11c0 35.83-30.22 65-67.36 65-32.06 0-59.83-22-66.07-52.24-3.14-17.3-21.19-23-37.11-28.09-4.42-1.4-9-2.85-13.14-4.49-12.32-4.85-18.32-14.18-18.32-28.51a33.59 33.59 0 0 1 33.54-33.55h21.66a20.51 20.51 0 0 0 18.41-11.54l11.31-23.62a13.39 13.39 0 0 1 12-7.56h60.14a13.39 13.39 0 0 1 12 7.56l11.33 23.62a20.51 20.51 0 0 0 18.41 11.59h21.63A33.59 33.59 0 0 1 478.81 89v2.33h12.68V89a46.28 46.28 0 0 0-46.22-46.23h-21.66a7.78 7.78 0 0 1-7-4.39L405.3 14.76A26.11 26.11 0 0 0 381.86 0h-60.12a26.11 26.11 0 0 0-23.44 14.76l-11.32 23.62a7.75 7.75 0 0 1-7 4.39h-21.6A46.28 46.28 0 0 0 212.16 89c0 24.74 14.29 35.57 26.27 40.29" class="cls-1"/><path d="M404.21 103.79h14a71.49 71.49 0 0 0-136.87 18.61 46.8 46.8 0 0 1 12 9h.06a58.82 58.82 0 0 1 110.81-27.61M632.74 249.48l10.52 9.43 1.52-1-11.47-18.1q-6.72 4.28-.57 9.67M62.49 296.2q-4.17-1.43-6.63-2.37a59 59 0 0 1-5.54-2.51 21.6 21.6 0 0 1-4.74-3.08 14 14 0 0 1-2.85-3.7 9.9 9.9 0 0 1-1.18-4.83 9.56 9.56 0 0 1 3.7-7.82 14.27 14.27 0 0 1 9.28-3q13.26 0 18.57 16.48l1.8-.28-1.61-17.72a63.6 63.6 0 0 0-15.48-1.87q-9.76 0-16.06 5.35a16.69 16.69 0 0 0-6.3 13.22 15.6 15.6 0 0 0 4.26 11.32q4.3 4.41 13.1 7.52c2.21.76 3.61 1.25 4.21 1.47s1.77.68 3.51 1.38a15.2 15.2 0 0 1 3.36 1.65c.51.41 1.31 1.05 2.42 1.9a6.75 6.75 0 0 1 2.18 2.51c.34.82.69 1.82 1 3a13.7 13.7 0 0 1 .52 3.94 10.66 10.66 0 0 1-4.17 8.67 15.65 15.65 0 0 1-10.03 3.35q-16 0-20.84-18.38l-1.9.28 1.42 19.05A62.8 62.8 0 0 0 51.55 334q11.75 0 18.62-5.78a18.54 18.54 0 0 0 6.87-14.87 15.34 15.34 0 0 0-3.56-10.44q-3.51-4.07-10.99-6.71M101.24 326.75q-1.23-2.7-1.23-9.9v-34.39c0-2.15 0-3.68.05-4.6a21.6 21.6 0 0 1 .42-3.31 6.1 6.1 0 0 1 1.14-2.8 10.3 10.3 0 0 1 2.18-1.75 12.7 12.7 0 0 1 3.7-1.47v-1.9H83.81v1.9q5.2 1.32 6.44 4t1.23 9.91v38.99a23 23 0 0 1-.43 3.31 5.9 5.9 0 0 1-1.14 2.8 10 10 0 0 1-2.18 1.75 12.7 12.7 0 0 1-3.69 1.47v1.89h23.69v-1.89c-3.52-.85-5.67-2.21-6.49-4.01M136.96 330.78a10.35 10.35 0 0 1-9-7.2q-2.23-6.26-1.66-21.32l1-26.25 21.41 46.43a43.4 43.4 0 0 1 3.41 9.19h3.51a58 58 0 0 1 3.79-10.23l21-45.67 1.8 40.74q.39 7.77-1.09 10.19c-1 1.61-3.3 2.95-7 4v2h24.07v-1.89q-5-1.51-6-3.55t-1.39-10.56l-2.08-38.37q-.28-5 1.32-6.92t6.16-2.84v-1.9h-16.32c0 2.28-1.24 6.22-3.7 11.85l-19.14 41.21-20-42.63a24.9 24.9 0 0 1-2.84-10.43h-17.05v1.9c2.72.57 4.64 1.4 5.78 2.51a6.6 6.6 0 0 1 1.71 5c0 .64-.05 1.68-.15 3.13s-.25 3.62-.47 6.49-.43 5.7-.62 8.48l-.47 7.77a159 159 0 0 1-1.89 17.29c-.76 4-1.73 6.84-2.89 8.48a7.7 7.7 0 0 1-4.88 3.13v1.89l23.68-.09ZM238.54 334.19a32.13 32.13 0 0 0 23.87-10.09 34 34 0 0 0 9.86-24.68q0-14.68-9.43-24.5t-24.21-9.8a32.18 32.18 0 0 0-23.78 10 33.46 33.46 0 0 0-9.86 24.4 34.5 34.5 0 0 0 9.53 24.59q9.51 10.09 24.02 10.08m-18.1-57.61a19.38 19.38 0 0 1 16-8.72q11-.37 18.05 8.63t7.53 23.78q.49 13.64-5.21 22.22a19.17 19.17 0 0 1-16.07 8.95q-10.89.39-17.95-8.86t-7.63-24.39q-.49-13.28 5.28-21.61M347.4 268.53v-1.9h-22.59v1.9q7.2 1.42 9.52 7.86t2.8 24.73l.47 19.62-40.08-47.38a26 26 0 0 1-4.36-6.73h-14.17v1.9c2.78.69 4.54 1.62 5.26 2.79s1.06 3.18 1 6l-.29 28.24a117 117 0 0 1-.9 15.39c-.53 3.57-1.25 6-2.13 7.3a6.1 6.1 0 0 1-3.88 2.51v1.89h23v-1.89a12.18 12.18 0 0 1-9.24-6.44q-2.79-5.31-3.17-17.25-.66-21.23-.67-30.7l41.7 49.08a99 99 0 0 1 6.44 8h4.45q-.37-6.34-.28-13.74l.19-18.47q.09-9 .28-13.84c.13-3.22.3-6.15.52-8.81a17.8 17.8 0 0 1 1.14-5.68 9.4 9.4 0 0 1 1.89-2.75 7.3 7.3 0 0 1 3.1-1.63M387.86 330.78v1.89h23.5v-1.89a11.6 11.6 0 0 1-5.64-3.6q-1.76-2.28-4.78-10.33l-19.13-50.6h-4.74l-13.45 36q-4.46 11.94-7.49 18t-5 8a9.3 9.3 0 0 1-4.6 2.46v1.89h22.48v-1.89q-6.45-1.14-6.49-7.77t4.5-19.42l19.9.09 5 13.55q4.48 11.75-4.06 13.62m-19.89-29.87 8.33-25.58 9.57 25.58ZM478.92 305.29q7.86 1.33 10.42 4.41t2.56 11.13v8.15a29.44 29.44 0 0 1-12.79 2.75 23.13 23.13 0 0 1-19.47-9.62q-7.26-9.61-7.25-24.21 0-13.83 6.2-21.84t17-8q14.6 0 22.65 19.62l1.7-.48-1.7-18.38a58.2 58.2 0 0 0-19.9-3.6q-15.82 0-25.91 9.57t-10.1 24.92q0 15.45 9.53 25t24.87 9.52a55 55 0 0 0 6.73-.43c2.33-.28 4.17-.55 5.49-.8s3.33-.68 6-1.28 4.5-1 5.45-1.19c-.26-2.58-.38-6.31-.38-11.17s.47-8.34 1.42-10.24a7.29 7.29 0 0 1 4.83-3.79v-1.89h-27.35ZM518.71 272.55c.82 1.81 1.24 5.11 1.24 9.91v38.99a22 22 0 0 1-.43 3.31 5.9 5.9 0 0 1-1.14 2.8 10.2 10.2 0 0 1-2.17 1.75 12.7 12.7 0 0 1-3.7 1.47v1.89h23.69v-1.89c-3.48-.88-5.63-2.23-6.45-4s-1.23-5.1-1.23-9.9v-34.42c0-2.15 0-3.68.05-4.6a20.6 20.6 0 0 1 .43-3.31 6 6 0 0 1 1.13-2.8 10.6 10.6 0 0 1 2.18-1.75 12.7 12.7 0 0 1 3.7-1.47v-1.9h-23.74v1.9q5.21 1.32 6.44 4.02M577.81 265.12a32.16 32.16 0 0 0-23.78 10 33.46 33.46 0 0 0-9.86 24.4 34.54 34.54 0 0 0 9.52 24.59q9.52 10.1 24 10.09a32.13 32.13 0 0 0 23.88-10.09 34 34 0 0 0 9.86-24.68q0-14.68-9.43-24.5t-24.19-9.81m18.14 57.37a19.14 19.14 0 0 1-16.06 8.95q-10.89.39-18-8.86t-7.63-24.39q-.48-13.27 5.31-21.61a19.38 19.38 0 0 1 16-8.72q11-.37 18 8.63t7.53 23.78q.62 13.64-5.12 22.22ZM668.89 315.05q-4.92 8.25-10.8 11.61a26.44 26.44 0 0 1-13.36 3.36c-3.73 0-7-.12-9.76-.38V299.7l6.92.19q7.2.19 10.14 2.65a11.74 11.74 0 0 1 3.79 7.11h1.7l.29-21.13h-1.62a10.1 10.1 0 0 1-4.12 6.25q-3.07 2.08-10.18 2.28l-6.92.19v-27.86c1.2 0 2.35 0 3.46-.05l2.65-.09c.67 0 1.41-.05 2.23-.05q8.14 0 12.41 3.08t7.09 11.23l1.8-.38-1.14-16.49h-44.51v1.9a13.9 13.9 0 0 1 3.6 1.42 8.8 8.8 0 0 1 2.22 1.8 6.1 6.1 0 0 1 1.19 2.8 21 21 0 0 1 .43 3.31v38.99q0 7.2-1.18 9.9c-.79 1.8-2.89 3.15-6.3 4v1.89h45.57l6.07-17ZM19.6 380.26c-1.85-.63-3.32-1.15-4.41-1.57a39 39 0 0 1-3.69-1.67 14 14 0 0 1-3.15-2.05 9 9 0 0 1-1.89-2.46 6.6 6.6 0 0 1-.79-3.21 6.35 6.35 0 0 1 2.46-5.2 9.46 9.46 0 0 1 6.17-2q8.83 0 12.36 11l1.2-.19-1.05-11.81a42.3 42.3 0 0 0-10.28-1.26 15.92 15.92 0 0 0-10.72 3.56 11.11 11.11 0 0 0-4.2 8.8 10.4 10.4 0 0 0 2.84 7.53q2.84 2.93 8.7 5c1.47.5 2.41.83 2.8 1s1.18.45 2.34.91a11 11 0 0 1 2.24 1.1c.33.28.87.7 1.6 1.27a4.3 4.3 0 0 1 1.45 1.67 18 18 0 0 1 .7 2 9.2 9.2 0 0 1 .34 2.62 7 7 0 0 1-2.77 5.76 10.37 10.37 0 0 1-6.75 2.24q-10.65 0-13.86-12.23l-1.26.19.96 12.65a41.5 41.5 0 0 0 11.35 1.52q7.82 0 12.38-3.85a12.33 12.33 0 0 0 4.57-9.9 10.2 10.2 0 0 0-2.33-7 17 17 0 0 0-7.31-4.42M63.03 360.6H37.44a19.6 19.6 0 0 1-4.54-.51l-.82 11.73 1.26.12c.93-3.32 2.22-5.74 3.88-7.28s4.17-2.3 7.53-2.3h2.59v34.65a15.5 15.5 0 0 1-.29 2.21 4 4 0 0 1-.76 1.86 6.6 6.6 0 0 1-1.48 1.22 8.5 8.5 0 0 1-2.46 1v1.26h15.76v-1.26c-2.32-.58-3.75-1.48-4.29-2.68s-.82-3.39-.82-6.58v-31.68h2.71q5 0 7.53 2.3c1.66 1.54 3 4 3.88 7.28l1.26-.12-.82-11.73a19.6 19.6 0 0 1-4.53.51M99.03 361.91a8.25 8.25 0 0 1 6.43 4.95q1.69 4 2.2 14.59c.13 2.61.17 4.64.13 6.11q-.25 7.06-3.5 11.07t-9.49 4a19.3 19.3 0 0 1-7-1.07 8.37 8.37 0 0 1-4.2-3.5 15.7 15.7 0 0 1-2-5.67 53 53 0 0 1-.54-8.36v-15.91a14 14 0 0 1 .29-2.21 4 4 0 0 1 .75-1.86 6.6 6.6 0 0 1 1.45-1.16 8.3 8.3 0 0 1 2.46-1v-1.26H70.28v1.28q3.47.89 4.29 2.68c.54 1.19.82 3.39.82 6.58l-.25 12q-.08 11.6 3.78 17t13.89 5.37a18.2 18.2 0 0 0 9.52-2.3 13.5 13.5 0 0 0 5.61-6.46 19.9 19.9 0 0 0 1.35-5.51q.34-3.12.41-8.74c0-3.78.1-6.68.16-8.7s.17-3.86.31-5.54a11.2 11.2 0 0 1 .76-3.63 5.9 5.9 0 0 1 1.26-1.76 5.05 5.05 0 0 1 2-1v-1.26H99.03ZM136.72 360.34c-.54 0-2.09.05-4.63.13s-4.72.13-6.52.13h-8.2v1.31a9.4 9.4 0 0 1 2.4.94 6 6 0 0 1 1.48 1.2 4.24 4.24 0 0 1 .79 1.86 14 14 0 0 1 .28 2.21v25.89c0 3.19-.26 5.39-.79 6.58s-1.92 2.1-4.19 2.68v1.26h8.2c1.76 0 3.85 0 6.27.13s4.17.13 5.26.13q11.22 0 17.75-6.34t6.52-16.48q0-9.9-6.52-15.76t-18.1-5.87m13.37 37.36q-4.67 5.33-13.3 5.32a53 53 0 0 1-8.76-.63v-39.71a55 55 0 0 1 7.87-.57q8.78 0 13.81 5.93t5 15.44q.04 8.9-4.62 14.22M178.2 400.59c-.54-1.19-.82-3.39-.82-6.58v-25.89a15.5 15.5 0 0 1 .29-2.21 4.1 4.1 0 0 1 .75-1.86 6.7 6.7 0 0 1 1.46-1.16 8.3 8.3 0 0 1 2.45-1v-1.26H166.6v1.28q3.47.89 4.29 2.68c.55 1.19.82 3.39.82 6.58v25.84a14 14 0 0 1-.29 2.21 4 4 0 0 1-.75 1.86 7 7 0 0 1-1.45 1.17 8.4 8.4 0 0 1-2.46 1v1.26h15.76v-1.26c-2.34-.56-3.77-1.46-4.32-2.66M210.23 359.59a21.43 21.43 0 0 0-15.83 6.65 22.23 22.23 0 0 0-6.59 16.23 23 23 0 0 0 6.33 16.36 21 21 0 0 0 16 6.71 21.37 21.37 0 0 0 15.89-6.71 24.09 24.09 0 0 0 .28-32.72q-6.25-6.52-16.08-6.52m12.07 38.17a12.77 12.77 0 0 1-10.69 6 13.78 13.78 0 0 1-11.94-5.9q-4.7-6.15-5.08-16.23-.32-8.82 3.53-14.38a12.92 12.92 0 0 1 10.69-5.83 14 14 0 0 1 12 5.73q4.69 6 5 15.83.3 9.08-3.51 14.78M255.24 360.6v1.31a6.55 6.55 0 0 1 3.78 2.05 7.5 7.5 0 0 1 1.13 4.13l.07 26v3a14 14 0 0 1-.28 2.21 4 4 0 0 1-.76 1.86 6.7 6.7 0 0 1-1.45 1.17 8.4 8.4 0 0 1-2.45 1v1.26h15.75v-1.26c-2.31-.58-3.74-1.48-4.28-2.68s-.82-3.39-.82-6.58V382.6l5.36.12c3.19.05 5.44.62 6.74 1.74a7.85 7.85 0 0 1 2.52 4.76h1.14l.19-14.06h-1.07a6.94 6.94 0 0 1-2.75 4.19q-2 1.43-6.77 1.48l-5.36.13v-18.53q5.93-.13 6.87-.13 11.22 0 13 9.52l1.19-.25-.75-11ZM314.49 359.59a21.4 21.4 0 0 0-15.82 6.65 22.24 22.24 0 0 0-6.56 16.23 22.94 22.94 0 0 0 6.34 16.36 21 21 0 0 0 16 6.71 21.35 21.35 0 0 0 15.88-6.71 24.07 24.07 0 0 0 .29-32.72q-6.29-6.52-16.13-6.52m12.07 38.17a12.76 12.76 0 0 1-10.68 6 13.79 13.79 0 0 1-11.95-5.9q-4.69-6.15-5.07-16.23-.32-8.82 3.53-14.38a12.89 12.89 0 0 1 10.65-5.79 13.94 13.94 0 0 1 12 5.73q4.69 6 5 15.83.33 9.04-3.48 14.74M370.09 360.6H344.5a19.6 19.6 0 0 1-4.54-.51l-.82 11.73 1.26.12c.92-3.32 2.22-5.74 3.88-7.28s4.17-2.3 7.53-2.3h2.58v34.65a14 14 0 0 1-.28 2.21 4 4 0 0 1-.76 1.86 6.7 6.7 0 0 1-1.45 1.17 8.4 8.4 0 0 1-2.46 1v1.26h15.76v-1.26c-2.31-.58-3.74-1.48-4.28-2.68s-.82-3.39-.82-6.58v-31.63h2.71q5 0 7.53 2.3c1.66 1.54 2.95 4 3.88 7.28l1.26-.12-.82-11.73a19.6 19.6 0 0 1-4.57.51M400.1 359.59a21.4 21.4 0 0 0-15.82 6.65 22.2 22.2 0 0 0-6.56 16.23 23 23 0 0 0 6.33 16.36 21 21 0 0 0 16 6.71 21.36 21.36 0 0 0 15.88-6.71 24.07 24.07 0 0 0 .29-32.72q-6.29-6.52-16.12-6.52m12.07 38.17a12.77 12.77 0 0 1-10.69 6 13.78 13.78 0 0 1-11.94-5.9q-4.69-6.15-5.08-16.23-.31-8.82 3.53-14.38a12.92 12.92 0 0 1 10.66-5.79 14 14 0 0 1 12 5.73q4.69 6 5 15.83.33 9.04-3.48 14.74M453.24 386.32c3.49.59 5.8 1.56 6.93 2.93s1.7 3.83 1.7 7.41v5.42a19.5 19.5 0 0 1-8.51 1.82 15.39 15.39 0 0 1-12.95-6.39q-4.83-6.41-4.82-16.11 0-9.21 4.13-14.53a13.53 13.53 0 0 1 11.31-5.33q9.7 0 15.07 13.05l1.13-.32-1.13-12.22a38.6 38.6 0 0 0-13.24-2.4q-10.53 0-17.24 6.37t-6.71 16.58q0 10.28 6.33 16.61t16.57 6.33a37 37 0 0 0 4.47-.28q2.34-.29 3.66-.54c.88-.16 2.22-.45 4-.85s3-.66 3.63-.78q-.25-2.59-.26-7.44t.95-6.81a4.85 4.85 0 0 1 3.22-2.52v-1.26h-18.24ZM551.67 400.91a31.6 31.6 0 0 1-3.18-6.87l-12.74-33.67h-3.15l-8.95 24c-2 5.3-3.63 9.3-5 12a22 22 0 0 1-3.31 5.33 6.4 6.4 0 0 1-1.77 1.2 16.8 16.8 0 0 1-6.14-4.51 68.4 68.4 0 0 1-9.83-14.53 15.1 15.1 0 0 0 7.15-4.61 10.9 10.9 0 0 0 2.56-7.18 10.67 10.67 0 0 0-3.66-8.36q-3.66-3.24-10.72-3.24l-3.75.09c-2.16.06-4 .1-5.58.1h-8.19v1.25a9.5 9.5 0 0 1 2.39.94 6.1 6.1 0 0 1 1.49 1.2 4.1 4.1 0 0 1 .78 1.86 13 13 0 0 1 .29 2.21v28.89a14 14 0 0 1-.29 2.21 4 4 0 0 1-.75 1.86 7 7 0 0 1-1.45 1.17 8.4 8.4 0 0 1-2.46 1v1.26h15.76v-1.26c-2.31-.58-3.74-1.48-4.29-2.68s-.82-3.39-.82-6.58v-9.08a19.3 19.3 0 0 0 3.15.25c.68 0 1.56 0 2.65-.13.3.51.76 1.37 1.39 2.59q5.73 10.27 8.13 13.11 3.46 4.15 7.88 4.16 1.38 0 6.74-.32h11.22v-1.26q-4.27-.75-4.31-5.17t3-12.92l13.24.06 3.34 9q3 7.75-2.71 9v1.26h15.63v-1.26a7.7 7.7 0 0 1-3.74-2.37m-61.05-17.46a12.8 12.8 0 0 1-4.54-.76v-20.08a29.4 29.4 0 0 1 5.24-.44q5.1 0 7.5 3.09a12 12 0 0 1 2.39 7.57 10.3 10.3 0 0 1-2.77 7.43 11.12 11.12 0 0 1-7.82 3.16Zm35.93 0 5.55-17 6.37 17ZM557.81 360.6v1.31a6.5 6.5 0 0 1 3.78 2.05 7.56 7.56 0 0 1 1.14 4.13l.06 26v3a14 14 0 0 1-.29 2.21 4 4 0 0 1-.75 1.86 7 7 0 0 1-1.45 1.17 8.4 8.4 0 0 1-2.46 1v1.26h15.76v-1.26c-2.31-.58-3.74-1.48-4.29-2.68s-.82-3.39-.82-6.58V382.6l5.36.12c3.19.05 5.44.62 6.75 1.74a7.9 7.9 0 0 1 2.52 4.76h1.13l.19-14.06h-1.07a6.93 6.93 0 0 1-2.74 4.19q-2.06 1.43-6.78 1.48l-5.36.13v-18.53q5.93-.13 6.87-.13 11.22 0 13 9.52l1.2-.25-.76-11ZM605.73 400.59c-.55-1.19-.82-3.39-.82-6.58v-25.89a15 15 0 0 1 .28-2.21 4 4 0 0 1 .76-1.86 6.6 6.6 0 0 1 1.45-1.16 8.3 8.3 0 0 1 2.46-1v-1.26h-15.73v1.28q3.46.89 4.29 2.68c.54 1.19.81 3.39.81 6.58v25.84a14 14 0 0 1-.28 2.21 4 4 0 0 1-.76 1.86 6.7 6.7 0 0 1-1.45 1.17 8.4 8.4 0 0 1-2.46 1v1.26h15.73v-1.26c-2.31-.56-3.74-1.46-4.28-2.66M638.89 403.84a14.72 14.72 0 0 1-12.42-6.4q-4.73-6.39-4.73-16 0-9.27 4.19-14.56t11.57-5.3q9.39 0 14.75 13.05l1.13-.32-1.13-12.22a38.6 38.6 0 0 0-13.24-2.4q-10.53 0-17.24 6.37t-6.71 16.58q0 10.28 6.33 16.61t16.55 6.33a47.2 47.2 0 0 0 13.68-2l3.78-10.91-1.13-.38q-6.3 11.54-15.38 11.55M681.25 359.59a21.43 21.43 0 0 0-15.83 6.65 22.23 22.23 0 0 0-6.55 16.23 23 23 0 0 0 6.33 16.36 21 21 0 0 0 16 6.71 21.37 21.37 0 0 0 15.89-6.71 24.09 24.09 0 0 0 .28-32.72q-6.29-6.52-16.12-6.52m12.07 38.17a12.77 12.77 0 0 1-10.69 6 13.78 13.78 0 0 1-11.94-5.9q-4.7-6.15-5.08-16.23-.31-8.82 3.53-14.38a12.92 12.92 0 0 1 10.67-5.83 13.93 13.93 0 0 1 12 5.73q4.71 6 5 15.83.33 9.08-3.49 14.78" class="cls-1"/></svg>