<svg xmlns="http://www.w3.org/2000/svg" viewBox="0 0 27.36 27.43"><path d="m0 27.43 2-7.34a13.58 13.58 0 1 1 5.41 5.36Zm7.74-4.73.46.28a11 11 0 1 0-3.77-3.74l.28.47-1.08 4.09Z"/><path d="M602.22 206.39a2.29 2.29 0 0 0-1.94-.44c-.51.21-.83 1-1.15 1.4a.48.48 0 0 1-.63.13 8.74 8.74 0 0 1-4.38-3.75.54.54 0 0 1 .06-.74 3 3 0 0 0 .8-1.29 2.77 2.77 0 0 0-.36-1.53 3.6 3.6 0 0 0-1.13-1.7 1.54 1.54 0 0 0-1.68.25 3.42 3.42 0 0 0-1.18 2.7 3.6 3.6 0 0 0 .11.86 7.1 7.1 0 0 0 .82 1.9 14 14 0 0 0 .86 1.3 13.3 13.3 0 0 0 3.73 3.47 11.5 11.5 0 0 0 2.32 1.1 5.15 5.15 0 0 0 2.71.43 3.27 3.27 0 0 0 2.45-1.83 1.57 1.57 0 0 0 .11-.93c-.14-.64-1-1.02-1.52-1.33" style="fill-rule:evenodd" transform="translate(-583.37 -190.96)"/></svg>